<?xml version="1.0" encoding="iso-8859-1"?>
<!-- Generator: Adobe Illustrator 19.0.0, SVG Export Plug-In . SVG Version: 6.00 Build 0)  -->
<svg version="1.1" id="Capa_1" xmlns="http://www.w3.org/2000/svg" xmlns:xlink="http://www.w3.org/1999/xlink" x="0px" y="0px"
	 width="56px" height="47px" viewBox="0 0 493.672 493.672" style="enable-background:new 0 0 493.672 493.672;" xml:space="preserve">
	 <style>
	 .common{
stroke-width: 1;
    fill-rule: evenodd;
    transform: translate(0, 5);
    fill: rgb(37, 203, 211);
}
	 </style>
<g>
	<g>
		<path class="common" d="M443.348,299.336L190.684,41.816L52.244,371.064L0.164,397.6l94.248,96.072l26.176-53.352l13.672-5.976
			c9.432,14.728,25.416,23.256,42.152,23.256c6.552,0,13.224-1.304,19.648-4.048l95.92-40.992
			c23.352-9.992,35.368-35.72,29.296-59.904L443.348,299.336z M90.004,466.328l-63.16-64.368l30.032-15.296l48.136,49.064
			L90.004,466.328z M285.692,397.84l-95.92,40.992c-14.688,6.288-31.216,1.4-40.552-11.024L306.3,359.2
			C309.044,375.088,300.892,391.344,285.692,397.84z M116.548,424.624l-48.624-49.568L182.62,102.264l164.152,167.312l11.424-11.2
			L189.34,86.28l6.768-16.096l219.56,223.776l-15.792,6.896l-29.768-30.336l-11.424,11.2l25.496,25.984L116.548,424.624z"/>
	</g>
</g>
<g>
	<g>
		<rect class="common" x="333.508" width="16" height="48"/>
	</g>
</g>
<g>
	<g>
		<rect class="common" x="242.998" y="37.494" transform="matrix(0.7071 -0.7071 0.7071 0.7071 30.0355 195.4921)" width="16" height="47.992"/>
	</g>
</g>
<g>
	<g>
		<rect class="common" x="423.992" y="218.501" transform="matrix(0.7071 -0.7071 0.7071 0.7071 -44.9435 376.4899)" width="16" height="47.992"/>
	</g>
</g>
<g>
	<g>
		<rect class="common" x="445.508" y="144" width="48" height="16"/>
	</g>
</g>
<g>
	<g>
		<rect class="common" x="408.008" y="53.522" transform="matrix(0.7071 -0.7071 0.7071 0.7071 83.0286 323.4922)" width="47.992" height="16"/>
	</g>
</g>
</svg>
